<?xml version="1.0" encoding="UTF-8"?>
<!-- Generator: Adobe Illustrator 18.0.0, SVG Export Plug-In . SVG Version: 6.00 Build 0)  -->
<!DOCTYPE svg PUBLIC "-//W3C//DTD SVG 1.1//EN" "http://www.w3.org/Graphics/SVG/1.1/DTD/svg11.dtd">
<svg version="1.1" id="Logo" xmlns="http://www.w3.org/2000/svg" xmlns:xlink="http://www.w3.org/1999/xlink" x="0px" y="0px" viewBox="18.6 993.3 288.8 143.3" width="448.926765468" height="222.753481619" enable-background="new 18.6 993.3 288.8 143.3" xml:space="preserve">
<g>
	<g>
		<path fill="#00A6E6" d="M78.9,1136.2l-9.3-13.5l-9.4,13.5h-9.1l13.8-20.2l-13.6-19.7h9.4l8.9,12.9l8.8-12.9h9.4l-13.6,19.6    l14,20.3H78.9z"/>
		<path fill="#00A6E6" d="M108.7,1096.3c9.4,0,14.5,5.5,14.5,12.7c0,7.2-5.1,12.6-14.5,12.6h-6.8v14.7h-8.1v-39.9H108.7z     M108.4,1114.5c4.1,0,6.7-1.9,6.7-5.5c0-3.7-2.5-5.5-6.7-5.5h-6.6v11H108.4z"/>
		<path fill="#00A6E6" d="M150.3,1136.2l-9.7-14.7h-4v14.7h-8.1v-39.9h14.8c9.4,0,14.5,5.5,14.5,12.7c0,5.6-3.1,10.2-9,11.9    l10.7,15.4H150.3z M136.6,1114.5h6.6c4.2,0,6.7-1.9,6.7-5.5c0-3.7-2.5-5.5-6.7-5.5h-6.6V1114.5z"/>
		<g>
			<polygon fill="#00A6E6" points="172,1129.2 172,1119.7 183.7,1119.7 186.3,1112.7 172,1112.7 172,1103.3 188,1103.3      190.6,1096.3 163.7,1096.3 163.7,1136.2 188.5,1136.2 191,1129.2    "/>
		</g>
		<g>
			<polygon fill="#00A6E6" points="28.4,1129.2 28.4,1119.7 40.1,1119.7 42.7,1112.7 28.4,1112.7 28.4,1103.3 44.4,1103.3      47,1096.3 20.1,1096.3 20.1,1136.2 44.8,1136.2 47.4,1129.2    "/>
		</g>
		<path fill="#00A6E6" d="M244,1111.7l-1.6-0.6c-3.8-1.4-5.1-2.4-5.1-4.6c0-2.3,2.4-3.7,5-3.7c2.8,0,5.5,1.2,6.3,3.2h7.8    c-0.4-1-1-2.9-2.3-4.6c-2.4-3.2-6.4-5.5-11.7-5.5c-6.6,0-13,4.2-13,10.7c0,6.3,4.7,9.6,11.1,11.7l1.6,0.5c4.7,1.6,6.6,3.3,6.6,6.2    c0,3.5-3.5,4.7-6.3,4.7c-3.6,0-7.1-2.4-8.2-5.3l0,0l0,0h-7.6c0.2,1.1,0.5,2,0.8,2.9l0.3,0.8c2.4,5.2,8,8.6,14.6,8.6    c5.6,0,14.3-3.5,14.3-11.7C256.8,1119.3,253.4,1114.9,244,1111.7z"/>
		<path fill="#00A6E6" d="M211.2,1111.7l-1.6-0.6c-3.8-1.4-5.1-2.4-5.1-4.6c0-2.3,2.4-3.7,5-3.7c2.8,0,5.5,1.2,6.3,3.2h7.8    c-0.4-1-1-2.9-2.3-4.6c-2.4-3.2-6.4-5.5-11.7-5.5c-6.6,0-13,4.2-13,10.7c0,6.3,4.7,9.6,11.1,11.7l1.6,0.5c4.7,1.6,6.6,3.3,6.6,6.2    c0,3.5-3.5,4.7-6.3,4.7c-3.6,0-7.1-2.4-8.1-5.3l0,0l0,0h-7.6c0.2,1.1,0.5,2,0.8,2.9l0.3,0.8c2.4,5.2,8,8.6,14.6,8.6    c5.6,0,14.4-3.5,14.4-11.7C223.9,1119.3,220.5,1114.9,211.2,1111.7z"/>
	</g>
	<g>
		<g>
			<path fill="#1E234F" d="M53.6,1088.8l-5.6-8.4h-2.3v8.4h-4.6v-22.7h8.4c5.3,0,8.2,3.1,8.2,7.2c0,3.2-1.8,5.8-5.1,6.8l6.1,8.8     L53.6,1088.8L53.6,1088.8z M45.7,1076.5h3.7c2.4,0,3.8-1.1,3.8-3.1c0-2.1-1.4-3.1-3.8-3.1h-3.7V1076.5z"/>
			<path fill="#1E234F" d="M135.5,1066.1c5.3,0,8.2,3.1,8.2,7.2c0,4.1-2.9,7.2-8.2,7.2h-3.9v8.4h-4.6v-22.8H135.5z M135.4,1076.5     c2.4,0,3.8-1.1,3.8-3.1c0-2.1-1.4-3.1-3.8-3.1h-3.7v6.3H135.4z"/>
			<path fill="#1E234F" d="M215.4,1088.8h-4.6v-22.7h4.6V1088.8z"/>
		</g>
		<path fill="#1E234F" d="M116.3,1074.9l-0.9-0.3c-2.1-0.8-2.9-1.4-2.9-2.6c0-1.3,1.4-2.1,2.9-2.1c1.6,0,3.1,0.7,3.6,1.8h4.5    c-0.2-0.8-0.6-1.5-1-2.1l0,0c0,0,0,0,0-0.1l0,0c-1.3-2-3.8-3.6-7-3.6c-3.8,0-7.4,2.4-7.4,6.1c0,3.6,2.7,5.5,6.3,6.7l1,0.3    c2.7,0.9,3.8,1.9,3.8,3.5c0,2-2,2.7-3.6,2.7c-2,0-4-1.4-4.6-3h-4.3c0.2,2,1.2,3.1,1.5,3.5l0,0l0,0c1.6,2.1,4.3,3.5,7.5,3.5    c3.2,0,8.2-2,8.2-6.7C123.6,1079.2,121.6,1076.7,116.3,1074.9z"/>
		<g>
			<polygon fill="#1E234F" points="245.9,1084.8 245.9,1079.4 252.4,1079.4 253.9,1075.4 245.9,1075.4 245.9,1070.1 255,1070.1      256.4,1066.1 241.2,1066.1 241.2,1088.8 255.3,1088.8 256.8,1084.8    "/>
			<polygon fill="#1E234F" points="151.7,1084.8 151.7,1079.4 158.2,1079.4 159.7,1075.4 151.7,1075.4 151.7,1070.1 160.8,1070.1      162.3,1066.1 147,1066.1 147,1088.8 161.2,1088.8 162.6,1084.8    "/>
			<g>
				<polygon fill="#1E234F" points="37.5,1066.1 20.1,1066.1 18.6,1070.1 25.7,1070.1 25.7,1088.8 30.5,1088.8 30.5,1070.1       36.1,1070.1     "/>
			</g>
		</g>
		<g>
			<polygon fill="#1E234F" points="98.7,1066.1 98.7,1078.1 85.6,1065.8 85.6,1065.8 85.6,1088.9 90.2,1088.9 90.2,1076.8      103.4,1089.1 103.4,1066.1    "/>
		</g>
		<g>
			<polygon fill="#1E234F" points="179.7,1066.1 179.7,1078.1 166.6,1065.8 166.6,1065.8 166.6,1088.9 171.2,1088.9 171.2,1076.8      184.4,1089.1 184.4,1066.1    "/>
		</g>
		<g>
			<polygon fill="#1E234F" points="202,1066.1 202,1078.1 188.8,1065.8 188.8,1065.8 188.8,1088.9 193.4,1088.9 193.4,1076.8      206.6,1089.1 206.6,1066.1    "/>
		</g>
		<g>
			<polygon fill="#1E234F" points="232.8,1066.1 232.8,1078.1 219.6,1065.8 219.6,1065.8 219.6,1088.9 224.2,1088.9 224.2,1076.8      237.4,1089.1 237.4,1066.1    "/>
		</g>
	</g>
	<polygon fill="#00A6E6" points="294.3,1037 304.2,1059.9 288.7,1056.4  "/>
	<polygon fill="#8F83BD" points="280.1,1012.1 307.4,995 294.4,1031.2  "/>
	<path fill="#00A6E6" d="M256.8,993.3c0.2,0.5,36.5,39.2,36.5,39.2l-36.5-10.7V993.3z"/>
	<polygon fill="#80CFF4" points="292.5,1033.9 256.8,1026.7 218.5,1054.2  "/>
	<polygon fill="#1E234F" points="292.5,1033.9 218.5,1054.2 256.8,1054.2  "/>
	<polygon fill="#943F90" points="292.7,1035.9 262.7,1056.8 272.1,1093.3  "/>
	<g>
		<path fill="#1E234F" d="M77.8,1088.9h5l-10.8-23.3l-10.8,23.3h5.1l2.1-5.3h7.2L77.8,1088.9z M70.1,1079.7l2-5.2l2,5.2H70.1z"/>
	</g>
</g>
</svg>