<?xml version="1.0" encoding="UTF-8" standalone="no"?>
<!-- Generator: Adobe Illustrator 18.0.0, SVG Export Plug-In . SVG Version: 6.00 Build 0)  -->

<svg
   version="1.1"
   id="Logo"
   x="0px"
   y="0px"
   viewBox="18.6 993.3 288.8 173.9822"
   width="448.92676"
   height="270.4476"
   enable-background="new 18.6 993.3 288.8 143.3"
   xml:space="preserve"
   sodipodi:docname="tpe-logo_soundboard.svg"
   inkscape:version="1.4.2 (ebf0e94, 2025-05-08)"
   xmlns:inkscape="http://www.inkscape.org/namespaces/inkscape"
   xmlns:sodipodi="http://sodipodi.sourceforge.net/DTD/sodipodi-0.dtd"
   xmlns="http://www.w3.org/2000/svg"
   xmlns:svg="http://www.w3.org/2000/svg"><defs
   id="defs22" /><sodipodi:namedview
   id="namedview22"
   pagecolor="#ffffff"
   bordercolor="#666666"
   borderopacity="1.0"
   inkscape:showpageshadow="2"
   inkscape:pageopacity="0.0"
   inkscape:pagecheckerboard="0"
   inkscape:deskcolor="#d1d1d1"
   inkscape:zoom="1.8136642"
   inkscape:cx="224.95895"
   inkscape:cy="111.37674"
   inkscape:window-width="1920"
   inkscape:window-height="1011"
   inkscape:window-x="0"
   inkscape:window-y="0"
   inkscape:window-maximized="1"
   inkscape:current-layer="Logo" />
<g
   id="g22">
	<g
   id="g5">
		<path
   fill="#00a6e6"
   d="m 78.9,1136.2 -9.3,-13.5 -9.4,13.5 H 51.1 L 64.9,1116 51.3,1096.3 h 9.4 l 8.9,12.9 8.8,-12.9 h 9.4 l -13.6,19.6 14,20.3 z"
   id="path1" />
		<path
   fill="#00a6e6"
   d="m 108.7,1096.3 c 9.4,0 14.5,5.5 14.5,12.7 0,7.2 -5.1,12.6 -14.5,12.6 h -6.8 v 14.7 h -8.1 v -39.9 h 14.9 z m -0.3,18.2 c 4.1,0 6.7,-1.9 6.7,-5.5 0,-3.7 -2.5,-5.5 -6.7,-5.5 h -6.6 v 11 z"
   id="path2" />
		<path
   fill="#00a6e6"
   d="m 150.3,1136.2 -9.7,-14.7 h -4 v 14.7 h -8.1 v -39.9 h 14.8 c 9.4,0 14.5,5.5 14.5,12.7 0,5.6 -3.1,10.2 -9,11.9 l 10.7,15.4 h -9.2 z m -13.7,-21.7 h 6.6 c 4.2,0 6.7,-1.9 6.7,-5.5 0,-3.7 -2.5,-5.5 -6.7,-5.5 h -6.6 z"
   id="path3" />
		<g
   id="g3">
			<polygon
   fill="#00a6e6"
   points="183.7,1119.7 186.3,1112.7 172,1112.7 172,1103.3 188,1103.3 190.6,1096.3 163.7,1096.3 163.7,1136.2 188.5,1136.2 191,1129.2 172,1129.2 172,1119.7 "
   id="polygon3" />
		</g>
		<g
   id="g4">
			<polygon
   fill="#00a6e6"
   points="40.1,1119.7 42.7,1112.7 28.4,1112.7 28.4,1103.3 44.4,1103.3 47,1096.3 20.1,1096.3 20.1,1136.2 44.8,1136.2 47.4,1129.2 28.4,1129.2 28.4,1119.7 "
   id="polygon4" />
		</g>
		<path
   fill="#00a6e6"
   d="m 244,1111.7 -1.6,-0.6 c -3.8,-1.4 -5.1,-2.4 -5.1,-4.6 0,-2.3 2.4,-3.7 5,-3.7 2.8,0 5.5,1.2 6.3,3.2 h 7.8 c -0.4,-1 -1,-2.9 -2.3,-4.6 -2.4,-3.2 -6.4,-5.5 -11.7,-5.5 -6.6,0 -13,4.2 -13,10.7 0,6.3 4.7,9.6 11.1,11.7 l 1.6,0.5 c 4.7,1.6 6.6,3.3 6.6,6.2 0,3.5 -3.5,4.7 -6.3,4.7 -3.6,0 -7.1,-2.4 -8.2,-5.3 v 0 0 h -7.6 c 0.2,1.1 0.5,2 0.8,2.9 l 0.3,0.8 c 2.4,5.2 8,8.6 14.6,8.6 5.6,0 14.3,-3.5 14.3,-11.7 0.2,-5.7 -3.2,-10.1 -12.6,-13.3 z"
   id="path4" />
		<path
   fill="#00a6e6"
   d="m 211.2,1111.7 -1.6,-0.6 c -3.8,-1.4 -5.1,-2.4 -5.1,-4.6 0,-2.3 2.4,-3.7 5,-3.7 2.8,0 5.5,1.2 6.3,3.2 h 7.8 c -0.4,-1 -1,-2.9 -2.3,-4.6 -2.4,-3.2 -6.4,-5.5 -11.7,-5.5 -6.6,0 -13,4.2 -13,10.7 0,6.3 4.7,9.6 11.1,11.7 l 1.6,0.5 c 4.7,1.6 6.6,3.3 6.6,6.2 0,3.5 -3.5,4.7 -6.3,4.7 -3.6,0 -7.1,-2.4 -8.1,-5.3 v 0 0 h -7.6 c 0.2,1.1 0.5,2 0.8,2.9 l 0.3,0.8 c 2.4,5.2 8,8.6 14.6,8.6 5.6,0 14.4,-3.5 14.4,-11.7 -0.1,-5.7 -3.5,-10.1 -12.8,-13.3 z"
   id="path5" />
	</g>
	<g
   id="g17">
		<g
   id="g8">
			<path
   fill="#1e234f"
   d="m 53.6,1088.8 -5.6,-8.4 h -2.3 v 8.4 h -4.6 v -22.7 h 8.4 c 5.3,0 8.2,3.1 8.2,7.2 0,3.2 -1.8,5.8 -5.1,6.8 l 6.1,8.8 z m -7.9,-12.3 h 3.7 c 2.4,0 3.8,-1.1 3.8,-3.1 0,-2.1 -1.4,-3.1 -3.8,-3.1 h -3.7 z"
   id="path6" />
			<path
   fill="#1e234f"
   d="m 135.5,1066.1 c 5.3,0 8.2,3.1 8.2,7.2 0,4.1 -2.9,7.2 -8.2,7.2 h -3.9 v 8.4 H 127 v -22.8 z m -0.1,10.4 c 2.4,0 3.8,-1.1 3.8,-3.1 0,-2.1 -1.4,-3.1 -3.8,-3.1 h -3.7 v 6.3 h 3.7 z"
   id="path7" />
			<path
   fill="#1e234f"
   d="m 215.4,1088.8 h -4.6 v -22.7 h 4.6 z"
   id="path8" />
		</g>
		<path
   fill="#1e234f"
   d="m 116.3,1074.9 -0.9,-0.3 c -2.1,-0.8 -2.9,-1.4 -2.9,-2.6 0,-1.3 1.4,-2.1 2.9,-2.1 1.6,0 3.1,0.7 3.6,1.8 h 4.5 c -0.2,-0.8 -0.6,-1.5 -1,-2.1 v 0 c 0,0 0,0 0,-0.1 v 0 c -1.3,-2 -3.8,-3.6 -7,-3.6 -3.8,0 -7.4,2.4 -7.4,6.1 0,3.6 2.7,5.5 6.3,6.7 l 1,0.3 c 2.7,0.9 3.8,1.9 3.8,3.5 0,2 -2,2.7 -3.6,2.7 -2,0 -4,-1.4 -4.6,-3 h -4.3 c 0.2,2 1.2,3.1 1.5,3.5 v 0 0 c 1.6,2.1 4.3,3.5 7.5,3.5 3.2,0 8.2,-2 8.2,-6.7 -0.3,-3.3 -2.3,-5.8 -7.6,-7.6 z"
   id="path9" />
		<g
   id="g12">
			<polygon
   fill="#1e234f"
   points="252.4,1079.4 253.9,1075.4 245.9,1075.4 245.9,1070.1 255,1070.1 256.4,1066.1 241.2,1066.1 241.2,1088.8 255.3,1088.8 256.8,1084.8 245.9,1084.8 245.9,1079.4 "
   id="polygon9" />
			<polygon
   fill="#1e234f"
   points="158.2,1079.4 159.7,1075.4 151.7,1075.4 151.7,1070.1 160.8,1070.1 162.3,1066.1 147,1066.1 147,1088.8 161.2,1088.8 162.6,1084.8 151.7,1084.8 151.7,1079.4 "
   id="polygon10" />
			<g
   id="g11">
				<polygon
   fill="#1e234f"
   points="18.6,1070.1 25.7,1070.1 25.7,1088.8 30.5,1088.8 30.5,1070.1 36.1,1070.1 37.5,1066.1 20.1,1066.1 "
   id="polygon11" />
			</g>
		</g>
		<g
   id="g13">
			<polygon
   fill="#1e234f"
   points="85.6,1065.8 85.6,1065.8 85.6,1088.9 90.2,1088.9 90.2,1076.8 103.4,1089.1 103.4,1066.1 98.7,1066.1 98.7,1078.1 "
   id="polygon12" />
		</g>
		<g
   id="g14">
			<polygon
   fill="#1e234f"
   points="166.6,1065.8 166.6,1065.8 166.6,1088.9 171.2,1088.9 171.2,1076.8 184.4,1089.1 184.4,1066.1 179.7,1066.1 179.7,1078.1 "
   id="polygon13" />
		</g>
		<g
   id="g15">
			<polygon
   fill="#1e234f"
   points="188.8,1065.8 188.8,1065.8 188.8,1088.9 193.4,1088.9 193.4,1076.8 206.6,1089.1 206.6,1066.1 202,1066.1 202,1078.1 "
   id="polygon14" />
		</g>
		<g
   id="g16">
			<polygon
   fill="#1e234f"
   points="219.6,1065.8 219.6,1065.8 219.6,1088.9 224.2,1088.9 224.2,1076.8 237.4,1089.1 237.4,1066.1 232.8,1066.1 232.8,1078.1 "
   id="polygon15" />
		</g>
	</g>
	<polygon
   fill="#00a6e6"
   points="288.7,1056.4 294.3,1037 304.2,1059.9 "
   id="polygon17" />
	<polygon
   fill="#8f83bd"
   points="294.4,1031.2 280.1,1012.1 307.4,995 "
   id="polygon18" />
	<path
   fill="#00a6e6"
   d="m 256.8,993.3 c 0.2,0.5 36.5,39.2 36.5,39.2 l -36.5,-10.7 z"
   id="path18" />
	<polygon
   fill="#80cff4"
   points="218.5,1054.2 292.5,1033.9 256.8,1026.7 "
   id="polygon19" />
	<polygon
   fill="#1e234f"
   points="256.8,1054.2 292.5,1033.9 218.5,1054.2 "
   id="polygon20" />
	<polygon
   fill="#943f90"
   points="272.1,1093.3 292.7,1035.9 262.7,1056.8 "
   id="polygon21" />
	<g
   id="g21">
		<path
   fill="#1e234f"
   d="m 77.8,1088.9 h 5 L 72,1065.6 61.2,1088.9 h 5.1 l 2.1,-5.3 h 7.2 z m -7.7,-9.2 2,-5.2 2,5.2 z"
   id="path21" />
	</g>
</g>
<text
   xml:space="preserve"
   style="font-size:34.31px;line-height:1.25;font-family:'Fira Sans';-inkscape-font-specification:'Fira Sans, Normal';fill:#1e234f;fill-opacity:1;stroke-width:0.643312"
   x="19.087982"
   y="1167.0142"
   id="text22"><tspan
     sodipodi:role="line"
     id="tspan22"
     style="font-style:normal;font-variant:normal;font-weight:normal;font-stretch:normal;font-size:34.31px;font-family:bogface;-inkscape-font-specification:bogface;fill:#1e234f;fill-opacity:1;stroke-width:0.643312"
     x="19.087982"
     y="1167.0142">SOUNDBOARD</tspan></text></svg>
